<mxfile host="app.diagrams.net" modified="2020-08-12T01:11:54.564Z" agent="5.0 (Windows NT 10.0; Win64; x64) AppleWebKit/537.36 (KHTML, like Gecko) Chrome/84.0.4147.105 Safari/537.36" etag="LXAQt3eWqDiTzxR2lSpi" version="13.6.2" type="github">
  <diagram id="C5RBs43oDa-KdzZeNtuy" name="Page-1">
    <mxGraphModel dx="3355" dy="2008" grid="1" gridSize="10" guides="1" tooltips="1" connect="1" arrows="1" fold="1" page="1" pageScale="1" pageWidth="827" pageHeight="1169" math="0" shadow="0">
      <root>
        <mxCell id="WIyWlLk6GJQsqaUBKTNV-0" />
        <mxCell id="WIyWlLk6GJQsqaUBKTNV-1" parent="WIyWlLk6GJQsqaUBKTNV-0" />
        <mxCell id="0xPtVrsPHyvr_ehAChtV-279" value="" style="ellipse;shape=cloud;whiteSpace=wrap;html=1;fontSize=14;" vertex="1" parent="WIyWlLk6GJQsqaUBKTNV-1">
          <mxGeometry x="-715" y="1080" width="120" height="80" as="geometry" />
        </mxCell>
        <mxCell id="0xPtVrsPHyvr_ehAChtV-256" value="후기 작성란에 별점?&lt;br&gt;아니면&lt;br&gt;&amp;nbsp;주문내역에&amp;nbsp;별점?&amp;nbsp;&lt;br&gt;&lt;br&gt;별점은 체크 즉시 처리 완료?&lt;br&gt;&lt;br&gt;아니면 후기란에 함께 넣고&amp;nbsp;&lt;br&gt;작성완료버튼으로 함께 처리?" style="ellipse;shape=cloud;whiteSpace=wrap;html=1;fontSize=14;" vertex="1" parent="WIyWlLk6GJQsqaUBKTNV-1">
          <mxGeometry x="-1476" y="536" width="266" height="284" as="geometry" />
        </mxCell>
        <mxCell id="0xPtVrsPHyvr_ehAChtV-255" value="&lt;font style=&quot;font-size: 14px&quot;&gt;수정?&lt;/font&gt;" style="ellipse;shape=cloud;whiteSpace=wrap;html=1;fontSize=10;" vertex="1" parent="WIyWlLk6GJQsqaUBKTNV-1">
          <mxGeometry x="-1506.25" y="413" width="76.25" height="64" as="geometry" />
        </mxCell>
        <mxCell id="0xPtVrsPHyvr_ehAChtV-254" value="&lt;font style=&quot;font-size: 14px&quot;&gt;탈퇴?&lt;/font&gt;" style="ellipse;shape=cloud;whiteSpace=wrap;html=1;fontSize=10;" vertex="1" parent="WIyWlLk6GJQsqaUBKTNV-1">
          <mxGeometry x="-1534" y="457" width="77" height="57" as="geometry" />
        </mxCell>
        <mxCell id="0xPtVrsPHyvr_ehAChtV-250" value="&lt;font style=&quot;font-size: 12px&quot;&gt;주소, &lt;br&gt;연락처&amp;nbsp;전달&lt;/font&gt;" style="ellipse;shape=cloud;whiteSpace=wrap;html=1;fontSize=10;" vertex="1" parent="WIyWlLk6GJQsqaUBKTNV-1">
          <mxGeometry x="-1050" y="190" width="87.5" height="78" as="geometry" />
        </mxCell>
        <mxCell id="0xPtVrsPHyvr_ehAChtV-33" value="&lt;font style=&quot;font-size: 14px&quot;&gt;View&lt;br&gt;Menu&lt;/font&gt;" style="ellipse;whiteSpace=wrap;html=1;" vertex="1" parent="WIyWlLk6GJQsqaUBKTNV-1">
          <mxGeometry x="-1292.28" y="248.5" width="82" height="68" as="geometry" />
        </mxCell>
        <mxCell id="0xPtVrsPHyvr_ehAChtV-4" value="&lt;font style=&quot;font-size: 21px&quot;&gt;Customer&lt;/font&gt;" style="shape=umlActor;verticalLabelPosition=bottom;verticalAlign=top;html=1;outlineConnect=0;" vertex="1" parent="WIyWlLk6GJQsqaUBKTNV-1">
          <mxGeometry x="-1567" y="253" width="30" height="83" as="geometry" />
        </mxCell>
        <mxCell id="0xPtVrsPHyvr_ehAChtV-17" value="&lt;font style=&quot;font-size: 14px&quot;&gt;Register&lt;/font&gt;" style="ellipse;whiteSpace=wrap;html=1;" vertex="1" parent="WIyWlLk6GJQsqaUBKTNV-1">
          <mxGeometry x="-1457" y="253" width="90" height="60" as="geometry" />
        </mxCell>
        <mxCell id="0xPtVrsPHyvr_ehAChtV-18" value="&lt;font style=&quot;font-size: 14px&quot;&gt;Login&lt;/font&gt;" style="ellipse;whiteSpace=wrap;html=1;" vertex="1" parent="WIyWlLk6GJQsqaUBKTNV-1">
          <mxGeometry x="-1457" y="333" width="90" height="60" as="geometry" />
        </mxCell>
        <mxCell id="0xPtVrsPHyvr_ehAChtV-23" value="" style="endArrow=classic;html=1;exitX=1;exitY=0.3333333333333333;exitDx=0;exitDy=0;exitPerimeter=0;entryX=0;entryY=0.5;entryDx=0;entryDy=0;" edge="1" parent="WIyWlLk6GJQsqaUBKTNV-1" source="0xPtVrsPHyvr_ehAChtV-4" target="0xPtVrsPHyvr_ehAChtV-17">
          <mxGeometry width="50" height="50" relative="1" as="geometry">
            <mxPoint x="-1537" y="253" as="sourcePoint" />
            <mxPoint x="-1527" y="253" as="targetPoint" />
          </mxGeometry>
        </mxCell>
        <mxCell id="0xPtVrsPHyvr_ehAChtV-28" value="" style="endArrow=classic;html=1;entryX=0;entryY=0.5;entryDx=0;entryDy=0;exitX=0.5;exitY=0.5;exitDx=0;exitDy=0;exitPerimeter=0;" edge="1" parent="WIyWlLk6GJQsqaUBKTNV-1" source="0xPtVrsPHyvr_ehAChtV-4" target="0xPtVrsPHyvr_ehAChtV-18">
          <mxGeometry width="50" height="50" relative="1" as="geometry">
            <mxPoint x="-1537" y="253" as="sourcePoint" />
            <mxPoint x="-1487" y="203" as="targetPoint" />
          </mxGeometry>
        </mxCell>
        <mxCell id="0xPtVrsPHyvr_ehAChtV-29" value="" style="endArrow=classic;html=1;entryX=0.5;entryY=0;entryDx=0;entryDy=0;exitX=0.5;exitY=1;exitDx=0;exitDy=0;dashed=1;" edge="1" parent="WIyWlLk6GJQsqaUBKTNV-1" source="0xPtVrsPHyvr_ehAChtV-17" target="0xPtVrsPHyvr_ehAChtV-18">
          <mxGeometry width="50" height="50" relative="1" as="geometry">
            <mxPoint x="-1497" y="303" as="sourcePoint" />
            <mxPoint x="-1447" y="253" as="targetPoint" />
          </mxGeometry>
        </mxCell>
        <mxCell id="0xPtVrsPHyvr_ehAChtV-31" value="" style="endArrow=classic;html=1;entryX=0;entryY=1;entryDx=0;entryDy=0;" edge="1" parent="WIyWlLk6GJQsqaUBKTNV-1" target="0xPtVrsPHyvr_ehAChtV-33">
          <mxGeometry width="50" height="50" relative="1" as="geometry">
            <mxPoint x="-1367" y="363" as="sourcePoint" />
            <mxPoint x="-1317" y="313" as="targetPoint" />
          </mxGeometry>
        </mxCell>
        <mxCell id="0xPtVrsPHyvr_ehAChtV-34" value="&lt;font style=&quot;font-size: 14px&quot;&gt;Without&lt;br&gt;Acoount&lt;/font&gt;" style="ellipse;whiteSpace=wrap;html=1;" vertex="1" parent="WIyWlLk6GJQsqaUBKTNV-1">
          <mxGeometry x="-1457" y="173" width="90" height="60" as="geometry" />
        </mxCell>
        <mxCell id="0xPtVrsPHyvr_ehAChtV-35" value="" style="endArrow=classic;html=1;exitX=0.5;exitY=0;exitDx=0;exitDy=0;exitPerimeter=0;entryX=0;entryY=0.5;entryDx=0;entryDy=0;" edge="1" parent="WIyWlLk6GJQsqaUBKTNV-1" source="0xPtVrsPHyvr_ehAChtV-4" target="0xPtVrsPHyvr_ehAChtV-34">
          <mxGeometry width="50" height="50" relative="1" as="geometry">
            <mxPoint x="-1397" y="373" as="sourcePoint" />
            <mxPoint x="-1347" y="323" as="targetPoint" />
          </mxGeometry>
        </mxCell>
        <mxCell id="0xPtVrsPHyvr_ehAChtV-36" value="" style="endArrow=classic;html=1;exitX=1;exitY=0.5;exitDx=0;exitDy=0;entryX=0;entryY=0;entryDx=0;entryDy=0;" edge="1" parent="WIyWlLk6GJQsqaUBKTNV-1" source="0xPtVrsPHyvr_ehAChtV-34" target="0xPtVrsPHyvr_ehAChtV-33">
          <mxGeometry width="50" height="50" relative="1" as="geometry">
            <mxPoint x="-1357" y="213" as="sourcePoint" />
            <mxPoint x="-1307" y="163" as="targetPoint" />
          </mxGeometry>
        </mxCell>
        <mxCell id="0xPtVrsPHyvr_ehAChtV-39" value="&lt;font style=&quot;font-size: 14px&quot;&gt;add to&lt;br&gt;cart&lt;/font&gt;" style="ellipse;whiteSpace=wrap;html=1;" vertex="1" parent="WIyWlLk6GJQsqaUBKTNV-1">
          <mxGeometry x="-1182" y="248" width="75" height="68" as="geometry" />
        </mxCell>
        <mxCell id="0xPtVrsPHyvr_ehAChtV-40" value="" style="endArrow=classic;html=1;entryX=0;entryY=0.5;entryDx=0;entryDy=0;exitX=1;exitY=0.5;exitDx=0;exitDy=0;" edge="1" parent="WIyWlLk6GJQsqaUBKTNV-1" source="0xPtVrsPHyvr_ehAChtV-191" target="0xPtVrsPHyvr_ehAChtV-41">
          <mxGeometry width="50" height="50" relative="1" as="geometry">
            <mxPoint x="-710" y="281" as="sourcePoint" />
            <mxPoint x="-657" y="286" as="targetPoint" />
          </mxGeometry>
        </mxCell>
        <mxCell id="0xPtVrsPHyvr_ehAChtV-41" value="&lt;font style=&quot;font-size: 14px&quot;&gt;주문상세내역&lt;br&gt;(취소 버튼)&lt;/font&gt;" style="ellipse;whiteSpace=wrap;html=1;" vertex="1" parent="WIyWlLk6GJQsqaUBKTNV-1">
          <mxGeometry x="-687" y="247" width="94" height="70" as="geometry" />
        </mxCell>
        <mxCell id="0xPtVrsPHyvr_ehAChtV-43" value="&lt;font style=&quot;font-size: 14px&quot;&gt;HOST가&lt;br&gt;주문 확인?&lt;/font&gt;" style="rhombus;whiteSpace=wrap;html=1;" vertex="1" parent="WIyWlLk6GJQsqaUBKTNV-1">
          <mxGeometry x="-690" y="123" width="100" height="70" as="geometry" />
        </mxCell>
        <mxCell id="0xPtVrsPHyvr_ehAChtV-58" value="&lt;font style=&quot;font-size: 14px&quot;&gt;주문&lt;br&gt;취소?&lt;/font&gt;" style="rhombus;whiteSpace=wrap;html=1;" vertex="1" parent="WIyWlLk6GJQsqaUBKTNV-1">
          <mxGeometry x="-1030" y="123" width="100" height="70" as="geometry" />
        </mxCell>
        <mxCell id="0xPtVrsPHyvr_ehAChtV-60" value="" style="endArrow=classic;html=1;fontSize=15;edgeStyle=orthogonalEdgeStyle;exitX=0;exitY=0.5;exitDx=0;exitDy=0;entryX=0.5;entryY=0;entryDx=0;entryDy=0;" edge="1" parent="WIyWlLk6GJQsqaUBKTNV-1" source="0xPtVrsPHyvr_ehAChtV-58" target="0xPtVrsPHyvr_ehAChtV-33">
          <mxGeometry relative="1" as="geometry">
            <mxPoint x="-1047" y="158" as="sourcePoint" />
            <mxPoint x="-1250" y="220" as="targetPoint" />
          </mxGeometry>
        </mxCell>
        <mxCell id="0xPtVrsPHyvr_ehAChtV-61" value="&lt;font style=&quot;font-size: 14px&quot;&gt;주문취소&lt;/font&gt;" style="edgeLabel;resizable=0;html=1;align=center;verticalAlign=middle;fontSize=14;" connectable="0" vertex="1" parent="0xPtVrsPHyvr_ehAChtV-60">
          <mxGeometry relative="1" as="geometry">
            <mxPoint x="33.94" as="offset" />
          </mxGeometry>
        </mxCell>
        <mxCell id="0xPtVrsPHyvr_ehAChtV-146" value="Cancel" style="edgeLabel;html=1;align=center;verticalAlign=middle;resizable=0;points=[];fontSize=14;" vertex="1" connectable="0" parent="0xPtVrsPHyvr_ehAChtV-60">
          <mxGeometry x="-0.7006" y="3" relative="1" as="geometry">
            <mxPoint y="-4" as="offset" />
          </mxGeometry>
        </mxCell>
        <mxCell id="0xPtVrsPHyvr_ehAChtV-70" value="&lt;font style=&quot;font-size: 14px&quot;&gt;Not Yet&lt;/font&gt;&lt;br&gt;&lt;font style=&quot;font-size: 11px&quot;&gt;취소버튼활성화&lt;/font&gt;" style="endArrow=classic;html=1;fontSize=15;exitX=0;exitY=0.5;exitDx=0;exitDy=0;" edge="1" parent="WIyWlLk6GJQsqaUBKTNV-1" source="0xPtVrsPHyvr_ehAChtV-43" target="0xPtVrsPHyvr_ehAChtV-58">
          <mxGeometry relative="1" as="geometry">
            <mxPoint x="-817" y="406" as="sourcePoint" />
            <mxPoint x="-717" y="406" as="targetPoint" />
          </mxGeometry>
        </mxCell>
        <mxCell id="0xPtVrsPHyvr_ehAChtV-73" value="Host&lt;br&gt;" style="shape=umlActor;verticalLabelPosition=bottom;verticalAlign=top;html=1;outlineConnect=0;fontSize=21;" vertex="1" parent="WIyWlLk6GJQsqaUBKTNV-1">
          <mxGeometry x="-1554" y="978" width="30" height="77.5" as="geometry" />
        </mxCell>
        <mxCell id="0xPtVrsPHyvr_ehAChtV-76" value="&lt;font style=&quot;font-size: 14px&quot;&gt;Register&lt;/font&gt;" style="ellipse;whiteSpace=wrap;html=1;" vertex="1" parent="WIyWlLk6GJQsqaUBKTNV-1">
          <mxGeometry x="-1600" y="1146.62" width="87" height="60" as="geometry" />
        </mxCell>
        <mxCell id="0xPtVrsPHyvr_ehAChtV-77" value="&lt;font style=&quot;font-size: 14px&quot;&gt;Login&lt;/font&gt;" style="ellipse;whiteSpace=wrap;html=1;" vertex="1" parent="WIyWlLk6GJQsqaUBKTNV-1">
          <mxGeometry x="-1400" y="969.5" width="90" height="60" as="geometry" />
        </mxCell>
        <mxCell id="0xPtVrsPHyvr_ehAChtV-79" value="" style="endArrow=classic;html=1;fontSize=21;exitX=0;exitY=1;exitDx=0;exitDy=0;exitPerimeter=0;" edge="1" parent="WIyWlLk6GJQsqaUBKTNV-1" source="0xPtVrsPHyvr_ehAChtV-73" target="0xPtVrsPHyvr_ehAChtV-76">
          <mxGeometry width="50" height="50" relative="1" as="geometry">
            <mxPoint x="-1552" y="1047.5" as="sourcePoint" />
            <mxPoint x="-1464" y="930.5" as="targetPoint" />
          </mxGeometry>
        </mxCell>
        <mxCell id="0xPtVrsPHyvr_ehAChtV-82" value="&lt;font style=&quot;font-size: 12px&quot;&gt;플랫폼에서&lt;br&gt;승인?&lt;/font&gt;" style="rhombus;whiteSpace=wrap;html=1;fontSize=21;" vertex="1" parent="WIyWlLk6GJQsqaUBKTNV-1">
          <mxGeometry x="-1490" y="1136.62" width="100" height="80" as="geometry" />
        </mxCell>
        <mxCell id="0xPtVrsPHyvr_ehAChtV-83" value="" style="endArrow=classic;html=1;fontSize=21;exitX=1;exitY=0.5;exitDx=0;exitDy=0;entryX=0;entryY=0.5;entryDx=0;entryDy=0;" edge="1" parent="WIyWlLk6GJQsqaUBKTNV-1" source="0xPtVrsPHyvr_ehAChtV-76" target="0xPtVrsPHyvr_ehAChtV-82">
          <mxGeometry width="50" height="50" relative="1" as="geometry">
            <mxPoint x="-924" y="1150.5" as="sourcePoint" />
            <mxPoint x="-874" y="1100.5" as="targetPoint" />
          </mxGeometry>
        </mxCell>
        <mxCell id="0xPtVrsPHyvr_ehAChtV-89" value="" style="endArrow=classic;html=1;fontSize=21;exitX=0.5;exitY=0;exitDx=0;exitDy=0;entryX=0.5;entryY=1;entryDx=0;entryDy=0;" edge="1" parent="WIyWlLk6GJQsqaUBKTNV-1" source="0xPtVrsPHyvr_ehAChtV-82" target="0xPtVrsPHyvr_ehAChtV-91">
          <mxGeometry relative="1" as="geometry">
            <mxPoint x="-944" y="1120.5" as="sourcePoint" />
            <mxPoint x="-464" y="970.5" as="targetPoint" />
          </mxGeometry>
        </mxCell>
        <mxCell id="0xPtVrsPHyvr_ehAChtV-90" value="Permitted" style="edgeLabel;resizable=0;html=1;align=center;verticalAlign=middle;fontSize=15;" connectable="0" vertex="1" parent="0xPtVrsPHyvr_ehAChtV-89">
          <mxGeometry relative="1" as="geometry">
            <mxPoint y="3" as="offset" />
          </mxGeometry>
        </mxCell>
        <mxCell id="0xPtVrsPHyvr_ehAChtV-91" value="Restaurant&amp;nbsp;&lt;br&gt;등록" style="ellipse;whiteSpace=wrap;html=1;fontSize=15;" vertex="1" parent="WIyWlLk6GJQsqaUBKTNV-1">
          <mxGeometry x="-1490" y="1043.5" width="100" height="60" as="geometry" />
        </mxCell>
        <mxCell id="0xPtVrsPHyvr_ehAChtV-92" value="" style="endArrow=classic;html=1;fontSize=15;exitX=0.5;exitY=0;exitDx=0;exitDy=0;exitPerimeter=0;entryX=0;entryY=0;entryDx=0;entryDy=0;" edge="1" parent="WIyWlLk6GJQsqaUBKTNV-1" source="0xPtVrsPHyvr_ehAChtV-73" target="0xPtVrsPHyvr_ehAChtV-77">
          <mxGeometry width="50" height="50" relative="1" as="geometry">
            <mxPoint x="-924" y="1130.5" as="sourcePoint" />
            <mxPoint x="-424" y="1085.5" as="targetPoint" />
          </mxGeometry>
        </mxCell>
        <mxCell id="0xPtVrsPHyvr_ehAChtV-97" value="" style="endArrow=classic;html=1;exitX=0.5;exitY=0;exitDx=0;exitDy=0;dashed=1;" edge="1" parent="WIyWlLk6GJQsqaUBKTNV-1" source="0xPtVrsPHyvr_ehAChtV-91" target="0xPtVrsPHyvr_ehAChtV-77">
          <mxGeometry width="50" height="50" relative="1" as="geometry">
            <mxPoint x="-1440" y="1070.5" as="sourcePoint" />
            <mxPoint x="-1440" y="1090.5" as="targetPoint" />
          </mxGeometry>
        </mxCell>
        <mxCell id="0xPtVrsPHyvr_ehAChtV-101" value="" style="endArrow=classic;html=1;exitX=0.5;exitY=0;exitDx=0;exitDy=0;entryX=0.5;entryY=1;entryDx=0;entryDy=0;" edge="1" parent="WIyWlLk6GJQsqaUBKTNV-1" source="0xPtVrsPHyvr_ehAChtV-41" target="0xPtVrsPHyvr_ehAChtV-43">
          <mxGeometry width="50" height="50" relative="1" as="geometry">
            <mxPoint x="-797.0000000000005" y="296" as="sourcePoint" />
            <mxPoint x="-756.9999999999995" y="296" as="targetPoint" />
          </mxGeometry>
        </mxCell>
        <mxCell id="0xPtVrsPHyvr_ehAChtV-104" value="" style="endArrow=classic;html=1;fontSize=15;entryX=0;entryY=0.5;entryDx=0;entryDy=0;" edge="1" parent="WIyWlLk6GJQsqaUBKTNV-1" target="0xPtVrsPHyvr_ehAChtV-39">
          <mxGeometry relative="1" as="geometry">
            <mxPoint x="-1209" y="282" as="sourcePoint" />
            <mxPoint x="-1155" y="283" as="targetPoint" />
          </mxGeometry>
        </mxCell>
        <mxCell id="0xPtVrsPHyvr_ehAChtV-113" value="&lt;font style=&quot;font-size: 14px&quot;&gt;Y&lt;/font&gt;&lt;br&gt;&lt;font style=&quot;font-size: 5px&quot;&gt;&lt;font style=&quot;font-size: 5px&quot;&gt;취소버튼 &lt;br&gt;비활성화&lt;/font&gt;&lt;/font&gt;" style="endArrow=classic;html=1;fontSize=14;exitX=1;exitY=0.5;exitDx=0;exitDy=0;entryX=0;entryY=0.5;entryDx=0;entryDy=0;" edge="1" parent="WIyWlLk6GJQsqaUBKTNV-1" source="0xPtVrsPHyvr_ehAChtV-43" target="0xPtVrsPHyvr_ehAChtV-115">
          <mxGeometry relative="1" as="geometry">
            <mxPoint x="-570" y="170" as="sourcePoint" />
            <mxPoint x="-490" y="170" as="targetPoint" />
            <Array as="points" />
            <mxPoint as="offset" />
          </mxGeometry>
        </mxCell>
        <mxCell id="0xPtVrsPHyvr_ehAChtV-115" value="&lt;font style=&quot;font-size: 14px&quot;&gt;Host가&lt;br&gt;주문 수락?&lt;/font&gt;" style="rhombus;whiteSpace=wrap;html=1;" vertex="1" parent="WIyWlLk6GJQsqaUBKTNV-1">
          <mxGeometry x="-510" y="123" width="100" height="70" as="geometry" />
        </mxCell>
        <mxCell id="0xPtVrsPHyvr_ehAChtV-116" value="" style="endArrow=classic;html=1;fontSize=15;edgeStyle=orthogonalEdgeStyle;entryX=0.5;entryY=0;entryDx=0;entryDy=0;exitX=0.5;exitY=0;exitDx=0;exitDy=0;" edge="1" parent="WIyWlLk6GJQsqaUBKTNV-1" source="0xPtVrsPHyvr_ehAChtV-58" target="0xPtVrsPHyvr_ehAChtV-43">
          <mxGeometry relative="1" as="geometry">
            <mxPoint x="-974" y="103" as="sourcePoint" />
            <mxPoint x="-817" y="53" as="targetPoint" />
            <Array as="points">
              <mxPoint x="-980" y="90" />
              <mxPoint x="-640" y="90" />
            </Array>
          </mxGeometry>
        </mxCell>
        <mxCell id="0xPtVrsPHyvr_ehAChtV-117" value="주문유지" style="edgeLabel;resizable=0;html=1;align=center;verticalAlign=middle;fontSize=14;" connectable="0" vertex="1" parent="0xPtVrsPHyvr_ehAChtV-116">
          <mxGeometry relative="1" as="geometry">
            <mxPoint x="-1.8799999999999955" as="offset" />
          </mxGeometry>
        </mxCell>
        <mxCell id="0xPtVrsPHyvr_ehAChtV-123" value="" style="endArrow=classic;html=1;fontSize=14;exitX=0.5;exitY=1;exitDx=0;exitDy=0;" edge="1" parent="WIyWlLk6GJQsqaUBKTNV-1" source="0xPtVrsPHyvr_ehAChtV-115" target="0xPtVrsPHyvr_ehAChtV-125">
          <mxGeometry relative="1" as="geometry">
            <mxPoint x="-937" y="353" as="sourcePoint" />
            <mxPoint x="-517" y="273" as="targetPoint" />
          </mxGeometry>
        </mxCell>
        <mxCell id="0xPtVrsPHyvr_ehAChtV-124" value="Y" style="edgeLabel;resizable=0;html=1;align=center;verticalAlign=middle;fontSize=14;" connectable="0" vertex="1" parent="0xPtVrsPHyvr_ehAChtV-123">
          <mxGeometry relative="1" as="geometry" />
        </mxCell>
        <mxCell id="0xPtVrsPHyvr_ehAChtV-125" value="&lt;font style=&quot;font-size: 14px&quot;&gt;카카오톡 &lt;br&gt;알림메세지&lt;/font&gt;" style="ellipse;whiteSpace=wrap;html=1;" vertex="1" parent="WIyWlLk6GJQsqaUBKTNV-1">
          <mxGeometry x="-502" y="257" width="85" height="60" as="geometry" />
        </mxCell>
        <mxCell id="0xPtVrsPHyvr_ehAChtV-127" value="" style="endArrow=classic;html=1;fontSize=14;edgeStyle=orthogonalEdgeStyle;entryX=0.5;entryY=0;entryDx=0;entryDy=0;exitX=1;exitY=0.5;exitDx=0;exitDy=0;" edge="1" parent="WIyWlLk6GJQsqaUBKTNV-1" source="0xPtVrsPHyvr_ehAChtV-115" target="0xPtVrsPHyvr_ehAChtV-133">
          <mxGeometry width="50" height="50" relative="1" as="geometry">
            <mxPoint x="-370" y="150" as="sourcePoint" />
            <mxPoint x="-1246.9999999999995" y="64.08056262387561" as="targetPoint" />
            <Array as="points">
              <mxPoint x="-370" y="60" />
              <mxPoint x="-1252" y="60" />
            </Array>
          </mxGeometry>
        </mxCell>
        <mxCell id="0xPtVrsPHyvr_ehAChtV-130" value="N" style="edgeLabel;html=1;align=center;verticalAlign=middle;resizable=0;points=[];fontSize=14;rotation=0;" vertex="1" connectable="0" parent="0xPtVrsPHyvr_ehAChtV-127">
          <mxGeometry x="-0.1137" y="2" relative="1" as="geometry">
            <mxPoint x="-110.43" y="-3" as="offset" />
          </mxGeometry>
        </mxCell>
        <mxCell id="0xPtVrsPHyvr_ehAChtV-132" value="" style="endArrow=classic;html=1;fontSize=15;exitX=0.5;exitY=1;exitDx=0;exitDy=0;entryX=0.5;entryY=0;entryDx=0;entryDy=0;" edge="1" parent="WIyWlLk6GJQsqaUBKTNV-1" source="0xPtVrsPHyvr_ehAChtV-133" target="0xPtVrsPHyvr_ehAChtV-33">
          <mxGeometry width="50" height="50" relative="1" as="geometry">
            <mxPoint x="-1242.9999999999995" y="108.40999999999997" as="sourcePoint" />
            <mxPoint x="-1270" y="240" as="targetPoint" />
          </mxGeometry>
        </mxCell>
        <mxCell id="0xPtVrsPHyvr_ehAChtV-133" value="&lt;font style=&quot;font-size: 14px&quot;&gt;카카오톡 &lt;br&gt;알림메세지&lt;/font&gt;" style="ellipse;whiteSpace=wrap;html=1;" vertex="1" parent="WIyWlLk6GJQsqaUBKTNV-1">
          <mxGeometry x="-1294.28" y="83" width="85" height="60" as="geometry" />
        </mxCell>
        <mxCell id="0xPtVrsPHyvr_ehAChtV-134" value="" style="endArrow=classic;html=1;fontSize=15;exitX=1;exitY=0.5;exitDx=0;exitDy=0;entryX=0;entryY=0.5;entryDx=0;entryDy=0;" edge="1" parent="WIyWlLk6GJQsqaUBKTNV-1" source="0xPtVrsPHyvr_ehAChtV-77" target="0xPtVrsPHyvr_ehAChtV-139">
          <mxGeometry width="50" height="50" relative="1" as="geometry">
            <mxPoint x="-934" y="900.5" as="sourcePoint" />
            <mxPoint x="-654" y="1017.5" as="targetPoint" />
          </mxGeometry>
        </mxCell>
        <mxCell id="0xPtVrsPHyvr_ehAChtV-137" value="" style="endArrow=classic;html=1;fontSize=16;exitX=1;exitY=0.5;exitDx=0;exitDy=0;entryX=0;entryY=0;entryDx=0;entryDy=0;" edge="1" parent="WIyWlLk6GJQsqaUBKTNV-1" source="0xPtVrsPHyvr_ehAChtV-77" target="0xPtVrsPHyvr_ehAChtV-268">
          <mxGeometry width="50" height="50" relative="1" as="geometry">
            <mxPoint x="-514" y="1097.5" as="sourcePoint" />
            <mxPoint x="-1260" y="1090" as="targetPoint" />
          </mxGeometry>
        </mxCell>
        <mxCell id="0xPtVrsPHyvr_ehAChtV-139" value="주문 미확인 &lt;br&gt;리스트 확인&lt;br&gt;(시간별 오름차순)" style="ellipse;whiteSpace=wrap;html=1;fontSize=16;" vertex="1" parent="WIyWlLk6GJQsqaUBKTNV-1">
          <mxGeometry x="-896" y="944.5" width="150" height="103" as="geometry" />
        </mxCell>
        <mxCell id="0xPtVrsPHyvr_ehAChtV-140" value="주문&lt;br&gt;실시간 알림&lt;br&gt;(popup+음성.?)" style="ellipse;whiteSpace=wrap;html=1;fontSize=16;" vertex="1" parent="WIyWlLk6GJQsqaUBKTNV-1">
          <mxGeometry x="-1147" y="847.5" width="160" height="70" as="geometry" />
        </mxCell>
        <mxCell id="0xPtVrsPHyvr_ehAChtV-141" value="" style="endArrow=classic;html=1;fontSize=16;exitX=0;exitY=0.5;exitDx=0;exitDy=0;entryX=1;entryY=0;entryDx=0;entryDy=0;" edge="1" parent="WIyWlLk6GJQsqaUBKTNV-1" source="0xPtVrsPHyvr_ehAChtV-140" target="0xPtVrsPHyvr_ehAChtV-77">
          <mxGeometry width="50" height="50" relative="1" as="geometry">
            <mxPoint x="-934" y="937.5" as="sourcePoint" />
            <mxPoint x="-884" y="887.5" as="targetPoint" />
          </mxGeometry>
        </mxCell>
        <mxCell id="0xPtVrsPHyvr_ehAChtV-144" value="" style="endArrow=classic;html=1;fontSize=16;entryX=0.5;entryY=0;entryDx=0;entryDy=0;exitX=1;exitY=0.5;exitDx=0;exitDy=0;dashed=1;" edge="1" parent="WIyWlLk6GJQsqaUBKTNV-1" source="0xPtVrsPHyvr_ehAChtV-140" target="0xPtVrsPHyvr_ehAChtV-139">
          <mxGeometry width="50" height="50" relative="1" as="geometry">
            <mxPoint x="-934" y="877.5" as="sourcePoint" />
            <mxPoint x="-884" y="827.5" as="targetPoint" />
          </mxGeometry>
        </mxCell>
        <mxCell id="0xPtVrsPHyvr_ehAChtV-160" value="주문&lt;br&gt;수락?" style="rhombus;whiteSpace=wrap;html=1;" vertex="1" parent="WIyWlLk6GJQsqaUBKTNV-1">
          <mxGeometry x="-694" y="874.5" width="130" height="70" as="geometry" />
        </mxCell>
        <mxCell id="0xPtVrsPHyvr_ehAChtV-161" value="" style="endArrow=classic;html=1;fontSize=16;exitX=1;exitY=0.5;exitDx=0;exitDy=0;entryX=0;entryY=0.5;entryDx=0;entryDy=0;" edge="1" parent="WIyWlLk6GJQsqaUBKTNV-1" source="0xPtVrsPHyvr_ehAChtV-139" target="0xPtVrsPHyvr_ehAChtV-160">
          <mxGeometry width="50" height="50" relative="1" as="geometry">
            <mxPoint x="-944" y="757.5" as="sourcePoint" />
            <mxPoint x="-894" y="707.5" as="targetPoint" />
          </mxGeometry>
        </mxCell>
        <mxCell id="0xPtVrsPHyvr_ehAChtV-162" value="클릭" style="edgeLabel;html=1;align=center;verticalAlign=middle;resizable=0;points=[];fontSize=16;" vertex="1" connectable="0" parent="0xPtVrsPHyvr_ehAChtV-161">
          <mxGeometry x="-0.3818" y="-1" relative="1" as="geometry">
            <mxPoint x="7.42" y="-15.58" as="offset" />
          </mxGeometry>
        </mxCell>
        <mxCell id="0xPtVrsPHyvr_ehAChtV-165" value="" style="endArrow=classic;html=1;fontSize=15;exitX=0.5;exitY=1;exitDx=0;exitDy=0;entryX=0;entryY=0.5;entryDx=0;entryDy=0;" edge="1" parent="WIyWlLk6GJQsqaUBKTNV-1" source="0xPtVrsPHyvr_ehAChtV-160" target="0xPtVrsPHyvr_ehAChtV-170">
          <mxGeometry relative="1" as="geometry">
            <mxPoint x="-604" y="876.5" as="sourcePoint" />
            <mxPoint x="-524" y="797.5" as="targetPoint" />
          </mxGeometry>
        </mxCell>
        <mxCell id="0xPtVrsPHyvr_ehAChtV-166" value="Yes" style="edgeLabel;resizable=0;html=1;align=center;verticalAlign=middle;fontSize=14;" connectable="0" vertex="1" parent="0xPtVrsPHyvr_ehAChtV-165">
          <mxGeometry relative="1" as="geometry" />
        </mxCell>
        <mxCell id="0xPtVrsPHyvr_ehAChtV-167" value="" style="endArrow=classic;html=1;fontSize=15;exitX=0.5;exitY=0;exitDx=0;exitDy=0;entryX=0;entryY=0.5;entryDx=0;entryDy=0;" edge="1" parent="WIyWlLk6GJQsqaUBKTNV-1" source="0xPtVrsPHyvr_ehAChtV-160" target="0xPtVrsPHyvr_ehAChtV-169">
          <mxGeometry relative="1" as="geometry">
            <mxPoint x="-560.5000000000005" y="908.79" as="sourcePoint" />
            <mxPoint x="-447.5" y="908.79" as="targetPoint" />
          </mxGeometry>
        </mxCell>
        <mxCell id="0xPtVrsPHyvr_ehAChtV-168" value="No" style="edgeLabel;resizable=0;html=1;align=center;verticalAlign=middle;fontSize=14;" connectable="0" vertex="1" parent="0xPtVrsPHyvr_ehAChtV-167">
          <mxGeometry relative="1" as="geometry">
            <mxPoint y="-6" as="offset" />
          </mxGeometry>
        </mxCell>
        <mxCell id="0xPtVrsPHyvr_ehAChtV-169" value="주무리스트&lt;br&gt;(클릭한 주문은 삭제)" style="ellipse;whiteSpace=wrap;html=1;" vertex="1" parent="WIyWlLk6GJQsqaUBKTNV-1">
          <mxGeometry x="-519" y="790" width="127" height="59.5" as="geometry" />
        </mxCell>
        <mxCell id="0xPtVrsPHyvr_ehAChtV-170" value="&lt;span&gt;주무리스트&lt;/span&gt;&lt;br&gt;&lt;span&gt;(해당 주문 리스트&lt;br&gt;배달... 뭐로 이동? )&lt;/span&gt;" style="ellipse;whiteSpace=wrap;html=1;" vertex="1" parent="WIyWlLk6GJQsqaUBKTNV-1">
          <mxGeometry x="-595" y="967.5" width="141" height="70" as="geometry" />
        </mxCell>
        <mxCell id="0xPtVrsPHyvr_ehAChtV-172" value="" style="curved=1;endArrow=classic;html=1;dashed=1;fontSize=16;exitX=1;exitY=0.5;exitDx=0;exitDy=0;entryX=0.5;entryY=1;entryDx=0;entryDy=0;" edge="1" parent="WIyWlLk6GJQsqaUBKTNV-1" source="0xPtVrsPHyvr_ehAChtV-170" target="0xPtVrsPHyvr_ehAChtV-115">
          <mxGeometry width="50" height="50" relative="1" as="geometry">
            <mxPoint x="-717.0000000000005" y="600" as="sourcePoint" />
            <mxPoint x="-524" y="280" as="targetPoint" />
            <Array as="points">
              <mxPoint x="-570" y="820" />
              <mxPoint x="-510" y="680" />
              <mxPoint x="-560" y="310" />
            </Array>
          </mxGeometry>
        </mxCell>
        <mxCell id="0xPtVrsPHyvr_ehAChtV-173" value="" style="curved=1;endArrow=classic;html=1;dashed=1;fontSize=16;exitX=1;exitY=0.5;exitDx=0;exitDy=0;entryX=1;entryY=0.5;entryDx=0;entryDy=0;" edge="1" parent="WIyWlLk6GJQsqaUBKTNV-1" source="0xPtVrsPHyvr_ehAChtV-169" target="0xPtVrsPHyvr_ehAChtV-115">
          <mxGeometry width="50" height="50" relative="1" as="geometry">
            <mxPoint x="-444.5735931288268" y="431.71572875255106" as="sourcePoint" />
            <mxPoint x="-290" y="158" as="targetPoint" />
            <Array as="points">
              <mxPoint x="-340" y="550" />
              <mxPoint x="-370" y="370" />
              <mxPoint x="-320" y="270" />
            </Array>
          </mxGeometry>
        </mxCell>
        <mxCell id="0xPtVrsPHyvr_ehAChtV-175" value="배달확인?" style="text;html=1;strokeColor=none;fillColor=none;align=center;verticalAlign=middle;whiteSpace=wrap;rounded=0;fontSize=16;" vertex="1" parent="WIyWlLk6GJQsqaUBKTNV-1">
          <mxGeometry x="-727" y="1120" width="150" height="20" as="geometry" />
        </mxCell>
        <mxCell id="0xPtVrsPHyvr_ehAChtV-177" value="" style="endArrow=classic;html=1;fontSize=16;exitX=1;exitY=0.5;exitDx=0;exitDy=0;" edge="1" parent="WIyWlLk6GJQsqaUBKTNV-1" source="0xPtVrsPHyvr_ehAChtV-18" target="0xPtVrsPHyvr_ehAChtV-182">
          <mxGeometry width="50" height="50" relative="1" as="geometry">
            <mxPoint x="-987" y="390" as="sourcePoint" />
            <mxPoint x="-1292" y="420" as="targetPoint" />
          </mxGeometry>
        </mxCell>
        <mxCell id="0xPtVrsPHyvr_ehAChtV-182" value="&lt;font style=&quot;font-size: 14px&quot;&gt;View&lt;br&gt;MyPage&lt;/font&gt;" style="ellipse;whiteSpace=wrap;html=1;fontSize=16;" vertex="1" parent="WIyWlLk6GJQsqaUBKTNV-1">
          <mxGeometry x="-1292.78" y="402" width="82" height="68" as="geometry" />
        </mxCell>
        <mxCell id="0xPtVrsPHyvr_ehAChtV-185" value="" style="endArrow=classic;html=1;fontSize=16;exitX=1;exitY=0.5;exitDx=0;exitDy=0;" edge="1" parent="WIyWlLk6GJQsqaUBKTNV-1" source="0xPtVrsPHyvr_ehAChtV-182" target="0xPtVrsPHyvr_ehAChtV-186">
          <mxGeometry width="50" height="50" relative="1" as="geometry">
            <mxPoint x="-930" y="350" as="sourcePoint" />
            <mxPoint x="-1140" y="390" as="targetPoint" />
          </mxGeometry>
        </mxCell>
        <mxCell id="0xPtVrsPHyvr_ehAChtV-186" value="&lt;font style=&quot;font-size: 14px&quot;&gt;주문내역&lt;br&gt;시간별 &lt;br&gt;내림차순&lt;/font&gt;" style="ellipse;whiteSpace=wrap;html=1;" vertex="1" parent="WIyWlLk6GJQsqaUBKTNV-1">
          <mxGeometry x="-1132" y="400" width="85" height="70" as="geometry" />
        </mxCell>
        <mxCell id="0xPtVrsPHyvr_ehAChtV-191" value="&lt;font style=&quot;font-size: 14px&quot;&gt;결제&lt;br&gt;성공?&lt;/font&gt;" style="rhombus;whiteSpace=wrap;html=1;fontSize=16;" vertex="1" parent="WIyWlLk6GJQsqaUBKTNV-1">
          <mxGeometry x="-787" y="247.5" width="70" height="69" as="geometry" />
        </mxCell>
        <mxCell id="0xPtVrsPHyvr_ehAChtV-192" value="&lt;font style=&quot;font-size: 14px&quot;&gt;PayMen&lt;/font&gt;&lt;font style=&quot;font-size: 14px&quot;&gt;t&lt;/font&gt;&lt;br&gt;카카오" style="ellipse;whiteSpace=wrap;html=1;" vertex="1" parent="WIyWlLk6GJQsqaUBKTNV-1">
          <mxGeometry x="-886" y="248" width="68" height="68" as="geometry" />
        </mxCell>
        <mxCell id="0xPtVrsPHyvr_ehAChtV-196" value="" style="endArrow=classic;html=1;fontSize=16;exitX=1;exitY=0.5;exitDx=0;exitDy=0;entryX=0;entryY=0.5;entryDx=0;entryDy=0;" edge="1" parent="WIyWlLk6GJQsqaUBKTNV-1" source="0xPtVrsPHyvr_ehAChtV-245" target="0xPtVrsPHyvr_ehAChtV-192">
          <mxGeometry width="50" height="50" relative="1" as="geometry">
            <mxPoint x="-945" y="350" as="sourcePoint" />
            <mxPoint x="-895" y="300" as="targetPoint" />
          </mxGeometry>
        </mxCell>
        <mxCell id="0xPtVrsPHyvr_ehAChtV-197" value="" style="endArrow=classic;html=1;fontSize=16;exitX=1;exitY=0.5;exitDx=0;exitDy=0;entryX=0;entryY=0.5;entryDx=0;entryDy=0;" edge="1" parent="WIyWlLk6GJQsqaUBKTNV-1" source="0xPtVrsPHyvr_ehAChtV-192" target="0xPtVrsPHyvr_ehAChtV-191">
          <mxGeometry width="50" height="50" relative="1" as="geometry">
            <mxPoint x="-835" y="350" as="sourcePoint" />
            <mxPoint x="-785" y="300" as="targetPoint" />
          </mxGeometry>
        </mxCell>
        <mxCell id="0xPtVrsPHyvr_ehAChtV-198" value="" style="endArrow=classic;html=1;fontSize=16;exitX=0.5;exitY=1;exitDx=0;exitDy=0;entryX=0.5;entryY=1;entryDx=0;entryDy=0;" edge="1" parent="WIyWlLk6GJQsqaUBKTNV-1" source="0xPtVrsPHyvr_ehAChtV-191" target="0xPtVrsPHyvr_ehAChtV-39">
          <mxGeometry width="50" height="50" relative="1" as="geometry">
            <mxPoint x="-945" y="340" as="sourcePoint" />
            <mxPoint x="-975" y="420" as="targetPoint" />
            <Array as="points">
              <mxPoint x="-752" y="340" />
              <mxPoint x="-1145" y="340" />
            </Array>
          </mxGeometry>
        </mxCell>
        <mxCell id="0xPtVrsPHyvr_ehAChtV-199" value="N" style="edgeLabel;html=1;align=center;verticalAlign=middle;resizable=0;points=[];fontSize=14;" vertex="1" connectable="0" parent="0xPtVrsPHyvr_ehAChtV-198">
          <mxGeometry x="0.2499" y="4" relative="1" as="geometry">
            <mxPoint x="13" y="-4" as="offset" />
          </mxGeometry>
        </mxCell>
        <mxCell id="0xPtVrsPHyvr_ehAChtV-200" value="&lt;span style=&quot;font-size: 14px&quot;&gt;주문 처리 &lt;br&gt;완료?&lt;/span&gt;" style="rhombus;whiteSpace=wrap;html=1;fontSize=16;" vertex="1" parent="WIyWlLk6GJQsqaUBKTNV-1">
          <mxGeometry x="-870" y="400.5" width="100" height="70" as="geometry" />
        </mxCell>
        <mxCell id="0xPtVrsPHyvr_ehAChtV-209" value="" style="endArrow=classic;html=1;fontSize=16;exitX=1;exitY=0.5;exitDx=0;exitDy=0;entryX=0.5;entryY=1;entryDx=0;entryDy=0;" edge="1" parent="WIyWlLk6GJQsqaUBKTNV-1" source="0xPtVrsPHyvr_ehAChtV-200" target="0xPtVrsPHyvr_ehAChtV-41">
          <mxGeometry relative="1" as="geometry">
            <mxPoint x="-890" y="530" as="sourcePoint" />
            <mxPoint x="-620" y="320" as="targetPoint" />
            <Array as="points">
              <mxPoint x="-640" y="435" />
            </Array>
          </mxGeometry>
        </mxCell>
        <mxCell id="0xPtVrsPHyvr_ehAChtV-210" value="N" style="edgeLabel;resizable=0;html=1;align=center;verticalAlign=middle;fontSize=14;" connectable="0" vertex="1" parent="0xPtVrsPHyvr_ehAChtV-209">
          <mxGeometry relative="1" as="geometry">
            <mxPoint x="-39.14" as="offset" />
          </mxGeometry>
        </mxCell>
        <mxCell id="0xPtVrsPHyvr_ehAChtV-211" value="" style="endArrow=classic;html=1;fontSize=16;entryX=0.5;entryY=0;entryDx=0;entryDy=0;exitX=0.5;exitY=1;exitDx=0;exitDy=0;" edge="1" parent="WIyWlLk6GJQsqaUBKTNV-1" source="0xPtVrsPHyvr_ehAChtV-200" target="0xPtVrsPHyvr_ehAChtV-234">
          <mxGeometry relative="1" as="geometry">
            <mxPoint x="-825" y="470" as="sourcePoint" />
            <mxPoint x="-825" y="520" as="targetPoint" />
          </mxGeometry>
        </mxCell>
        <mxCell id="0xPtVrsPHyvr_ehAChtV-212" value="Y" style="edgeLabel;resizable=0;html=1;align=center;verticalAlign=middle;fontSize=14;" connectable="0" vertex="1" parent="0xPtVrsPHyvr_ehAChtV-211">
          <mxGeometry relative="1" as="geometry">
            <mxPoint y="-4" as="offset" />
          </mxGeometry>
        </mxCell>
        <mxCell id="0xPtVrsPHyvr_ehAChtV-216" value="&lt;span&gt;주문 내역 &lt;br&gt;: &quot;취소완료&quot;로&lt;br&gt;삭제안하고 기록?&lt;br&gt;&lt;/span&gt;" style="ellipse;shape=cloud;whiteSpace=wrap;html=1;fontSize=16;" vertex="1" parent="WIyWlLk6GJQsqaUBKTNV-1">
          <mxGeometry x="-1560" y="10" width="203" height="108" as="geometry" />
        </mxCell>
        <mxCell id="0xPtVrsPHyvr_ehAChtV-219" value="" style="endArrow=none;dashed=1;html=1;dashPattern=1 3;strokeWidth=2;fontSize=16;entryX=0.882;entryY=0.802;entryDx=0;entryDy=0;entryPerimeter=0;" edge="1" parent="WIyWlLk6GJQsqaUBKTNV-1" target="0xPtVrsPHyvr_ehAChtV-216">
          <mxGeometry width="50" height="50" relative="1" as="geometry">
            <mxPoint x="-1250" y="200" as="sourcePoint" />
            <mxPoint x="-980" y="220" as="targetPoint" />
          </mxGeometry>
        </mxCell>
        <mxCell id="0xPtVrsPHyvr_ehAChtV-223" value="&lt;font style=&quot;font-size: 13px&quot;&gt;후기&lt;br&gt;작성됨?&lt;/font&gt;" style="rhombus;whiteSpace=wrap;html=1;fontSize=16;" vertex="1" parent="WIyWlLk6GJQsqaUBKTNV-1">
          <mxGeometry x="-870" y="628.5" width="100" height="70" as="geometry" />
        </mxCell>
        <mxCell id="0xPtVrsPHyvr_ehAChtV-226" value="" style="endArrow=classic;html=1;fontSize=16;entryX=1;entryY=0.5;entryDx=0;entryDy=0;exitX=0;exitY=0.5;exitDx=0;exitDy=0;" edge="1" parent="WIyWlLk6GJQsqaUBKTNV-1" source="0xPtVrsPHyvr_ehAChtV-223" target="0xPtVrsPHyvr_ehAChtV-228">
          <mxGeometry relative="1" as="geometry">
            <mxPoint x="-880" y="648" as="sourcePoint" />
            <mxPoint x="-689" y="654.5" as="targetPoint" />
          </mxGeometry>
        </mxCell>
        <mxCell id="0xPtVrsPHyvr_ehAChtV-227" value="Y" style="edgeLabel;resizable=0;html=1;align=center;verticalAlign=middle;" connectable="0" vertex="1" parent="0xPtVrsPHyvr_ehAChtV-226">
          <mxGeometry relative="1" as="geometry" />
        </mxCell>
        <mxCell id="0xPtVrsPHyvr_ehAChtV-228" value="주문 상세 내역&lt;br&gt;(후기 수정/삭제&lt;br&gt;버튼)" style="ellipse;whiteSpace=wrap;html=1;" vertex="1" parent="WIyWlLk6GJQsqaUBKTNV-1">
          <mxGeometry x="-1022" y="628.5" width="109" height="70" as="geometry" />
        </mxCell>
        <mxCell id="0xPtVrsPHyvr_ehAChtV-229" value="" style="endArrow=classic;html=1;fontSize=16;exitX=0.5;exitY=1;exitDx=0;exitDy=0;entryX=0.5;entryY=0;entryDx=0;entryDy=0;" edge="1" parent="WIyWlLk6GJQsqaUBKTNV-1" source="0xPtVrsPHyvr_ehAChtV-223" target="0xPtVrsPHyvr_ehAChtV-231">
          <mxGeometry relative="1" as="geometry">
            <mxPoint x="-759" y="664" as="sourcePoint" />
            <mxPoint x="-819" y="740.5" as="targetPoint" />
          </mxGeometry>
        </mxCell>
        <mxCell id="0xPtVrsPHyvr_ehAChtV-230" value="N" style="edgeLabel;resizable=0;html=1;align=center;verticalAlign=middle;fontSize=14;" connectable="0" vertex="1" parent="0xPtVrsPHyvr_ehAChtV-229">
          <mxGeometry relative="1" as="geometry">
            <mxPoint x="-1" y="-2" as="offset" />
          </mxGeometry>
        </mxCell>
        <mxCell id="0xPtVrsPHyvr_ehAChtV-231" value="주문 상세 내역&lt;br&gt;(후기작성버튼)" style="ellipse;whiteSpace=wrap;html=1;" vertex="1" parent="WIyWlLk6GJQsqaUBKTNV-1">
          <mxGeometry x="-862.5" y="750" width="85" height="70" as="geometry" />
        </mxCell>
        <mxCell id="0xPtVrsPHyvr_ehAChtV-232" value="" style="endArrow=classic;html=1;fontSize=16;exitX=0.073;exitY=0.833;exitDx=0;exitDy=0;entryX=1;entryY=0.5;entryDx=0;entryDy=0;exitPerimeter=0;" edge="1" parent="WIyWlLk6GJQsqaUBKTNV-1" source="0xPtVrsPHyvr_ehAChtV-182" target="0xPtVrsPHyvr_ehAChtV-233">
          <mxGeometry width="50" height="50" relative="1" as="geometry">
            <mxPoint x="-1200" y="520" as="sourcePoint" />
            <mxPoint x="-1140" y="520" as="targetPoint" />
          </mxGeometry>
        </mxCell>
        <mxCell id="0xPtVrsPHyvr_ehAChtV-233" value="개인정보&lt;br&gt;수정" style="ellipse;whiteSpace=wrap;html=1;" vertex="1" parent="WIyWlLk6GJQsqaUBKTNV-1">
          <mxGeometry x="-1476" y="453" width="76.5" height="61" as="geometry" />
        </mxCell>
        <mxCell id="0xPtVrsPHyvr_ehAChtV-234" value="&lt;font style=&quot;font-size: 14px;&quot;&gt;취소된 &lt;br style=&quot;font-size: 14px;&quot;&gt;주문?&lt;/font&gt;" style="rhombus;whiteSpace=wrap;html=1;fontSize=14;" vertex="1" parent="WIyWlLk6GJQsqaUBKTNV-1">
          <mxGeometry x="-870" y="518" width="100" height="70" as="geometry" />
        </mxCell>
        <mxCell id="0xPtVrsPHyvr_ehAChtV-238" value="" style="endArrow=classic;html=1;fontSize=16;exitX=1;exitY=0.5;exitDx=0;exitDy=0;entryX=0;entryY=0.5;entryDx=0;entryDy=0;" edge="1" parent="WIyWlLk6GJQsqaUBKTNV-1" source="0xPtVrsPHyvr_ehAChtV-234" target="0xPtVrsPHyvr_ehAChtV-240">
          <mxGeometry relative="1" as="geometry">
            <mxPoint x="-749" y="543" as="sourcePoint" />
            <mxPoint x="-689" y="543" as="targetPoint" />
          </mxGeometry>
        </mxCell>
        <mxCell id="0xPtVrsPHyvr_ehAChtV-239" value="Y" style="edgeLabel;resizable=0;html=1;align=center;verticalAlign=middle;fontSize=14;" connectable="0" vertex="1" parent="0xPtVrsPHyvr_ehAChtV-238">
          <mxGeometry relative="1" as="geometry">
            <mxPoint x="-4" as="offset" />
          </mxGeometry>
        </mxCell>
        <mxCell id="0xPtVrsPHyvr_ehAChtV-240" value="주문 상세 내역&lt;br&gt;(내역만)" style="ellipse;whiteSpace=wrap;html=1;" vertex="1" parent="WIyWlLk6GJQsqaUBKTNV-1">
          <mxGeometry x="-715" y="518" width="95" height="70" as="geometry" />
        </mxCell>
        <mxCell id="0xPtVrsPHyvr_ehAChtV-241" value="&lt;font style=&quot;font-size: 11px&quot;&gt;&quot;주메뉴&quot; 외 n가지&lt;br&gt;가격, 날짜,&amp;nbsp; 가게이름&lt;/font&gt;" style="ellipse;shape=cloud;whiteSpace=wrap;html=1;fontSize=16;" vertex="1" parent="WIyWlLk6GJQsqaUBKTNV-1">
          <mxGeometry x="-1262" y="348" width="150" height="83" as="geometry" />
        </mxCell>
        <mxCell id="0xPtVrsPHyvr_ehAChtV-242" value="&lt;font style=&quot;font-size: 11px&quot;&gt;&quot;6조배달 주문~&quot;&lt;br&gt;녹음!?&lt;br&gt;&lt;/font&gt;" style="ellipse;shape=cloud;whiteSpace=wrap;html=1;fontSize=16;" vertex="1" parent="WIyWlLk6GJQsqaUBKTNV-1">
          <mxGeometry x="-1230" y="820" width="130" height="76.5" as="geometry" />
        </mxCell>
        <mxCell id="0xPtVrsPHyvr_ehAChtV-245" value="&lt;font&gt;&lt;font style=&quot;font-size: 14px&quot;&gt;Order&lt;/font&gt;&lt;br&gt;&lt;font size=&quot;1&quot;&gt;주소, 연락처 &lt;/font&gt;&lt;br&gt;&lt;font size=&quot;1&quot;&gt;입력&lt;/font&gt;&lt;/font&gt;" style="ellipse;whiteSpace=wrap;html=1;" vertex="1" parent="WIyWlLk6GJQsqaUBKTNV-1">
          <mxGeometry x="-981" y="248" width="68" height="68" as="geometry" />
        </mxCell>
        <mxCell id="0xPtVrsPHyvr_ehAChtV-246" value="&lt;font style=&quot;font-size: 14px&quot;&gt;LogIn?&lt;/font&gt;" style="rhombus;whiteSpace=wrap;html=1;fontSize=16;" vertex="1" parent="WIyWlLk6GJQsqaUBKTNV-1">
          <mxGeometry x="-1080" y="248" width="70" height="68" as="geometry" />
        </mxCell>
        <mxCell id="0xPtVrsPHyvr_ehAChtV-247" value="" style="endArrow=classic;html=1;fontSize=16;entryX=0;entryY=0.5;entryDx=0;entryDy=0;exitX=1;exitY=0.5;exitDx=0;exitDy=0;" edge="1" parent="WIyWlLk6GJQsqaUBKTNV-1" source="0xPtVrsPHyvr_ehAChtV-39" target="0xPtVrsPHyvr_ehAChtV-246">
          <mxGeometry width="50" height="50" relative="1" as="geometry">
            <mxPoint x="-1105" y="283" as="sourcePoint" />
            <mxPoint x="-885" y="282" as="targetPoint" />
          </mxGeometry>
        </mxCell>
        <mxCell id="0xPtVrsPHyvr_ehAChtV-248" value="" style="endArrow=classic;html=1;fontSize=16;exitX=0.5;exitY=0;exitDx=0;exitDy=0;entryX=0.5;entryY=0;entryDx=0;entryDy=0;" edge="1" parent="WIyWlLk6GJQsqaUBKTNV-1" source="0xPtVrsPHyvr_ehAChtV-246" target="0xPtVrsPHyvr_ehAChtV-245">
          <mxGeometry relative="1" as="geometry">
            <mxPoint x="-955" y="320" as="sourcePoint" />
            <mxPoint x="-855" y="320" as="targetPoint" />
          </mxGeometry>
        </mxCell>
        <mxCell id="0xPtVrsPHyvr_ehAChtV-249" value="Y" style="edgeLabel;resizable=0;html=1;align=center;verticalAlign=middle;fontSize=14;" connectable="0" vertex="1" parent="0xPtVrsPHyvr_ehAChtV-248">
          <mxGeometry relative="1" as="geometry" />
        </mxCell>
        <mxCell id="0xPtVrsPHyvr_ehAChtV-251" value="" style="endArrow=classic;html=1;fontSize=16;exitX=0.5;exitY=1;exitDx=0;exitDy=0;entryX=0.5;entryY=1;entryDx=0;entryDy=0;" edge="1" parent="WIyWlLk6GJQsqaUBKTNV-1" source="0xPtVrsPHyvr_ehAChtV-246" target="0xPtVrsPHyvr_ehAChtV-245">
          <mxGeometry relative="1" as="geometry">
            <mxPoint x="-1040" y="260.5" as="sourcePoint" />
            <mxPoint x="-965" y="318" as="targetPoint" />
          </mxGeometry>
        </mxCell>
        <mxCell id="0xPtVrsPHyvr_ehAChtV-252" value="N" style="edgeLabel;resizable=0;html=1;align=center;verticalAlign=middle;fontSize=14;" connectable="0" vertex="1" parent="0xPtVrsPHyvr_ehAChtV-251">
          <mxGeometry relative="1" as="geometry" />
        </mxCell>
        <mxCell id="0xPtVrsPHyvr_ehAChtV-257" value="주문 내역 &lt;br&gt;삭제 버튼&lt;br&gt;필요?" style="ellipse;shape=cloud;whiteSpace=wrap;html=1;fontSize=14;" vertex="1" parent="WIyWlLk6GJQsqaUBKTNV-1">
          <mxGeometry x="-770" y="591.5" width="126" height="107" as="geometry" />
        </mxCell>
        <mxCell id="0xPtVrsPHyvr_ehAChtV-258" value="" style="endArrow=classic;html=1;fontSize=14;exitX=1;exitY=0.5;exitDx=0;exitDy=0;entryX=0;entryY=0.5;entryDx=0;entryDy=0;" edge="1" parent="WIyWlLk6GJQsqaUBKTNV-1" source="0xPtVrsPHyvr_ehAChtV-182" target="0xPtVrsPHyvr_ehAChtV-259">
          <mxGeometry width="50" height="50" relative="1" as="geometry">
            <mxPoint x="-1110" y="600" as="sourcePoint" />
            <mxPoint x="-1200" y="550" as="targetPoint" />
          </mxGeometry>
        </mxCell>
        <mxCell id="0xPtVrsPHyvr_ehAChtV-259" value="&lt;font style=&quot;font-size: 14px&quot;&gt;리뷰&lt;br&gt;관리&lt;/font&gt;" style="ellipse;whiteSpace=wrap;html=1;" vertex="1" parent="WIyWlLk6GJQsqaUBKTNV-1">
          <mxGeometry x="-1130" y="496" width="68" height="68" as="geometry" />
        </mxCell>
        <mxCell id="0xPtVrsPHyvr_ehAChtV-261" value="" style="endArrow=classic;html=1;fontSize=14;exitX=1;exitY=0.5;exitDx=0;exitDy=0;entryX=0.5;entryY=1;entryDx=0;entryDy=0;" edge="1" parent="WIyWlLk6GJQsqaUBKTNV-1" source="0xPtVrsPHyvr_ehAChtV-259" target="0xPtVrsPHyvr_ehAChtV-262">
          <mxGeometry width="50" height="50" relative="1" as="geometry">
            <mxPoint x="-1050" y="573" as="sourcePoint" />
            <mxPoint x="-1030" y="536" as="targetPoint" />
          </mxGeometry>
        </mxCell>
        <mxCell id="0xPtVrsPHyvr_ehAChtV-264" value="클릭" style="edgeLabel;html=1;align=center;verticalAlign=middle;resizable=0;points=[];fontSize=14;" vertex="1" connectable="0" parent="0xPtVrsPHyvr_ehAChtV-261">
          <mxGeometry x="-0.3425" y="-1" relative="1" as="geometry">
            <mxPoint x="7" y="-1.34" as="offset" />
          </mxGeometry>
        </mxCell>
        <mxCell id="0xPtVrsPHyvr_ehAChtV-262" value="상세 내역&lt;br&gt;&lt;font style=&quot;font-size: 12px&quot;&gt;(수정/삭제)&lt;/font&gt;" style="ellipse;whiteSpace=wrap;html=1;fontSize=14;direction=south;" vertex="1" parent="WIyWlLk6GJQsqaUBKTNV-1">
          <mxGeometry x="-999" y="496" width="68" height="68" as="geometry" />
        </mxCell>
        <mxCell id="0xPtVrsPHyvr_ehAChtV-267" value="후기 수정/삭제&lt;br&gt;어떻게 가죠?" style="ellipse;shape=cloud;whiteSpace=wrap;html=1;fontSize=14;" vertex="1" parent="WIyWlLk6GJQsqaUBKTNV-1">
          <mxGeometry x="-1182" y="585" width="169" height="80" as="geometry" />
        </mxCell>
        <mxCell id="0xPtVrsPHyvr_ehAChtV-268" value="고객 리뷰&lt;br&gt;확인" style="ellipse;whiteSpace=wrap;html=1;fontSize=14;" vertex="1" parent="WIyWlLk6GJQsqaUBKTNV-1">
          <mxGeometry x="-1180" y="1057.5" width="80" height="82.5" as="geometry" />
        </mxCell>
        <mxCell id="0xPtVrsPHyvr_ehAChtV-269" value="&lt;span style=&quot;font-size: 13px&quot;&gt;댓글 작성?&lt;/span&gt;" style="rhombus;whiteSpace=wrap;html=1;fontSize=16;" vertex="1" parent="WIyWlLk6GJQsqaUBKTNV-1">
          <mxGeometry x="-1030" y="1067.25" width="100" height="63" as="geometry" />
        </mxCell>
        <mxCell id="0xPtVrsPHyvr_ehAChtV-271" value="" style="endArrow=classic;html=1;fontSize=16;exitX=1;exitY=0.5;exitDx=0;exitDy=0;" edge="1" parent="WIyWlLk6GJQsqaUBKTNV-1">
          <mxGeometry relative="1" as="geometry">
            <mxPoint x="-930" y="1098.04" as="sourcePoint" />
            <mxPoint x="-874" y="1098" as="targetPoint" />
          </mxGeometry>
        </mxCell>
        <mxCell id="0xPtVrsPHyvr_ehAChtV-272" value="No" style="edgeLabel;resizable=0;html=1;align=center;verticalAlign=middle;" connectable="0" vertex="1" parent="0xPtVrsPHyvr_ehAChtV-271">
          <mxGeometry relative="1" as="geometry" />
        </mxCell>
        <mxCell id="0xPtVrsPHyvr_ehAChtV-273" value="" style="endArrow=classic;html=1;fontSize=16;exitX=1;exitY=0.5;exitDx=0;exitDy=0;" edge="1" parent="WIyWlLk6GJQsqaUBKTNV-1">
          <mxGeometry relative="1" as="geometry">
            <mxPoint x="-983" y="1130.2500000000002" as="sourcePoint" />
            <mxPoint x="-983" y="1190" as="targetPoint" />
          </mxGeometry>
        </mxCell>
        <mxCell id="0xPtVrsPHyvr_ehAChtV-274" value="Yes" style="edgeLabel;resizable=0;html=1;align=center;verticalAlign=middle;" connectable="0" vertex="1" parent="0xPtVrsPHyvr_ehAChtV-273">
          <mxGeometry relative="1" as="geometry" />
        </mxCell>
        <mxCell id="0xPtVrsPHyvr_ehAChtV-275" value="" style="endArrow=classic;html=1;fontSize=14;entryX=0;entryY=0.5;entryDx=0;entryDy=0;exitX=1;exitY=0.5;exitDx=0;exitDy=0;" edge="1" parent="WIyWlLk6GJQsqaUBKTNV-1" source="0xPtVrsPHyvr_ehAChtV-268" target="0xPtVrsPHyvr_ehAChtV-269">
          <mxGeometry width="50" height="50" relative="1" as="geometry">
            <mxPoint x="-1090" y="1090" as="sourcePoint" />
            <mxPoint x="-1030" y="1020" as="targetPoint" />
          </mxGeometry>
        </mxCell>
        <mxCell id="0xPtVrsPHyvr_ehAChtV-276" value="클릭" style="edgeLabel;html=1;align=center;verticalAlign=middle;resizable=0;points=[];fontSize=14;" vertex="1" connectable="0" parent="0xPtVrsPHyvr_ehAChtV-275">
          <mxGeometry x="-0.3425" y="-1" relative="1" as="geometry">
            <mxPoint x="6" as="offset" />
          </mxGeometry>
        </mxCell>
        <mxCell id="0xPtVrsPHyvr_ehAChtV-277" value="댓글란&lt;br&gt;(작성)" style="ellipse;whiteSpace=wrap;html=1;aspect=fixed;fontSize=14;" vertex="1" parent="WIyWlLk6GJQsqaUBKTNV-1">
          <mxGeometry x="-869.75" y="1060.87" width="75.75" height="75.75" as="geometry" />
        </mxCell>
        <mxCell id="0xPtVrsPHyvr_ehAChtV-278" value="댓글란&lt;br&gt;(수정/삭제)" style="ellipse;whiteSpace=wrap;html=1;aspect=fixed;fontSize=14;" vertex="1" parent="WIyWlLk6GJQsqaUBKTNV-1">
          <mxGeometry x="-1019.75" y="1193.75" width="75.75" height="75.75" as="geometry" />
        </mxCell>
        <mxCell id="0xPtVrsPHyvr_ehAChtV-280" value="" style="endArrow=classic;html=1;fontSize=16;exitX=1;exitY=0.5;exitDx=0;exitDy=0;entryX=0.4;entryY=0.1;entryDx=0;entryDy=0;entryPerimeter=0;" edge="1" parent="WIyWlLk6GJQsqaUBKTNV-1" source="0xPtVrsPHyvr_ehAChtV-77" target="0xPtVrsPHyvr_ehAChtV-284">
          <mxGeometry width="50" height="50" relative="1" as="geometry">
            <mxPoint x="-1329.25" y="1009.5" as="sourcePoint" />
            <mxPoint x="-1287.4707520604616" y="1270.2038441619725" as="targetPoint" />
          </mxGeometry>
        </mxCell>
        <mxCell id="0xPtVrsPHyvr_ehAChtV-282" value="정보&lt;br&gt;&amp;nbsp;수정" style="ellipse;whiteSpace=wrap;html=1;aspect=fixed;fontSize=14;" vertex="1" parent="WIyWlLk6GJQsqaUBKTNV-1">
          <mxGeometry x="-1227" y="1180" width="80" height="80" as="geometry" />
        </mxCell>
        <mxCell id="0xPtVrsPHyvr_ehAChtV-283" value="" style="endArrow=classic;html=1;fontSize=14;entryX=0;entryY=0;entryDx=0;entryDy=0;exitX=1;exitY=0.5;exitDx=0;exitDy=0;" edge="1" parent="WIyWlLk6GJQsqaUBKTNV-1" source="0xPtVrsPHyvr_ehAChtV-77" target="0xPtVrsPHyvr_ehAChtV-282">
          <mxGeometry width="50" height="50" relative="1" as="geometry">
            <mxPoint x="-1310" y="1120" as="sourcePoint" />
            <mxPoint x="-1010" y="950" as="targetPoint" />
          </mxGeometry>
        </mxCell>
        <mxCell id="0xPtVrsPHyvr_ehAChtV-284" value="매출 관리?" style="ellipse;shape=cloud;whiteSpace=wrap;html=1;fontSize=14;" vertex="1" parent="WIyWlLk6GJQsqaUBKTNV-1">
          <mxGeometry x="-1347" y="1260" width="120" height="80" as="geometry" />
        </mxCell>
        <mxCell id="0xPtVrsPHyvr_ehAChtV-287" value="" style="endArrow=classic;html=1;fontSize=16;exitX=1;exitY=0.5;exitDx=0;exitDy=0;" edge="1" parent="WIyWlLk6GJQsqaUBKTNV-1" source="0xPtVrsPHyvr_ehAChtV-246" target="0xPtVrsPHyvr_ehAChtV-245">
          <mxGeometry width="50" height="50" relative="1" as="geometry">
            <mxPoint x="-884.0000000000005" y="292" as="sourcePoint" />
            <mxPoint x="-859" y="292.5" as="targetPoint" />
          </mxGeometry>
        </mxCell>
        <mxCell id="0xPtVrsPHyvr_ehAChtV-292" value="&lt;font style=&quot;font-size: 14px&quot;&gt;&lt;font style=&quot;font-size: 14px&quot;&gt;PickUp&lt;/font&gt;?&lt;br&gt;넣을건지?&lt;/font&gt;" style="ellipse;shape=cloud;whiteSpace=wrap;html=1;fontSize=16;" vertex="1" parent="WIyWlLk6GJQsqaUBKTNV-1">
          <mxGeometry x="-950" y="194" width="90" height="63" as="geometry" />
        </mxCell>
        <mxCell id="0xPtVrsPHyvr_ehAChtV-293" value="" style="endArrow=classic;html=1;fontSize=16;exitX=1;exitY=0.5;exitDx=0;exitDy=0;entryX=0;entryY=0.5;entryDx=0;entryDy=0;" edge="1" parent="WIyWlLk6GJQsqaUBKTNV-1" source="0xPtVrsPHyvr_ehAChtV-186" target="0xPtVrsPHyvr_ehAChtV-200">
          <mxGeometry relative="1" as="geometry">
            <mxPoint x="-1035" y="258" as="sourcePoint" />
            <mxPoint x="-937" y="258" as="targetPoint" />
          </mxGeometry>
        </mxCell>
        <mxCell id="0xPtVrsPHyvr_ehAChtV-294" value="클릭" style="edgeLabel;resizable=0;html=1;align=center;verticalAlign=middle;fontSize=14;" connectable="0" vertex="1" parent="0xPtVrsPHyvr_ehAChtV-293">
          <mxGeometry relative="1" as="geometry">
            <mxPoint x="-10" as="offset" />
          </mxGeometry>
        </mxCell>
        <mxCell id="0xPtVrsPHyvr_ehAChtV-295" value="N" style="edgeLabel;html=1;align=center;verticalAlign=middle;resizable=0;points=[];fontSize=14;rotation=0;" vertex="1" connectable="0" parent="WIyWlLk6GJQsqaUBKTNV-1">
          <mxGeometry x="-0.1137" y="2" relative="1" as="geometry">
            <mxPoint x="24.5" y="2" as="offset" />
          </mxGeometry>
        </mxCell>
        <mxCell id="0xPtVrsPHyvr_ehAChtV-297" value="" style="endArrow=classic;html=1;fontSize=16;entryX=0.5;entryY=0;entryDx=0;entryDy=0;exitX=0.5;exitY=1;exitDx=0;exitDy=0;" edge="1" parent="WIyWlLk6GJQsqaUBKTNV-1" source="0xPtVrsPHyvr_ehAChtV-234" target="0xPtVrsPHyvr_ehAChtV-223">
          <mxGeometry relative="1" as="geometry">
            <mxPoint x="-810" y="480.5" as="sourcePoint" />
            <mxPoint x="-810" y="528" as="targetPoint" />
          </mxGeometry>
        </mxCell>
        <mxCell id="0xPtVrsPHyvr_ehAChtV-298" value="Y" style="edgeLabel;resizable=0;html=1;align=center;verticalAlign=middle;fontSize=14;" connectable="0" vertex="1" parent="0xPtVrsPHyvr_ehAChtV-297">
          <mxGeometry relative="1" as="geometry">
            <mxPoint y="-4" as="offset" />
          </mxGeometry>
        </mxCell>
      </root>
    </mxGraphModel>
  </diagram>
</mxfile>
